<svg xmlns="http://www.w3.org/2000/svg" viewBox="0 -0.5 500 500" shape-rendering="crispEdges">
<metadata>Made with Pixels to Svg https://codepen.io/shshaw/pen/XbxvNj</metadata>
<path stroke="#990030" d="M245 140h20M245 141h20M245 142h20M245 143h20M245 144h20M235 145h35M235 146h35M235 147h35M235 148h35M235 149h35M235 150h10M255 150h5M265 150h5M235 151h10M255 151h5M265 151h5M235 152h10M255 152h5M265 152h5M235 153h10M255 153h5M265 153h5M235 154h10M255 154h5M265 154h5M230 155h15M265 155h5M230 156h15M265 156h5M230 157h15M265 157h5M230 158h15M265 158h5M230 159h15M265 159h5M230 160h10M230 161h10M230 162h10M230 163h10M230 164h10M230 165h15M230 166h15M230 167h15M230 168h15M230 169h15M230 170h15M230 171h15M230 172h15M230 173h15M230 174h15M230 175h5M230 176h5M230 177h5M230 178h5M230 179h5" />
<path stroke="#e5aa7a" d="M245 150h10M260 150h5M245 151h10M260 151h5M245 152h10M260 152h5M245 153h10M260 153h5M245 154h10M260 154h5M245 155h20M245 156h20M245 157h20M245 158h20M245 159h20M240 160h10M255 160h5M240 161h10M255 161h5M240 162h10M255 162h5M240 163h10M255 163h5M240 164h10M255 164h5M245 165h5M255 165h5M245 166h5M255 166h5M245 167h5M255 167h5M245 168h5M255 168h5M245 169h5M255 169h5M245 170h10M260 170h10M245 171h10M260 171h10M245 172h10M260 172h10M245 173h10M260 173h10M245 174h10M260 174h10M240 175h10M265 175h5M240 176h10M265 176h5M240 177h10M265 177h5M240 178h10M265 178h5M240 179h10M265 179h5M240 180h30M240 181h30M240 182h30M240 183h30M240 184h30M250 190h10M250 191h10M250 192h10M250 193h10M250 194h10M250 195h10M250 196h10M250 197h10M250 198h10M250 199h10M305 260h5M305 261h5M305 262h5M305 263h5M305 264h5M190 265h5M300 265h10M190 266h5M300 266h10M190 267h5M300 267h10M190 268h5M300 268h10M190 269h5M300 269h10M195 270h5M195 271h5M195 272h5M195 273h5M195 274h5M195 275h5M195 276h5M195 277h5M195 278h5M195 279h5" />
<path stroke="#ffffff" d="M250 160h5M260 160h5M250 161h5M260 161h5M250 162h5M260 162h5M250 163h5M260 163h5M250 164h5M260 164h5M245 225h10M260 225h10M245 226h10M260 226h10M245 227h10M260 227h10M245 228h10M260 228h10M245 229h10M260 229h10M245 230h10M260 230h10M245 231h10M260 231h10M245 232h10M260 232h10M245 233h10M260 233h10M245 234h10M260 234h10M245 235h10M260 235h10M245 236h10M260 236h10M245 237h10M260 237h10M245 238h10M260 238h10M245 239h10M260 239h10M245 240h5M265 240h5M245 241h5M265 241h5M245 242h5M265 242h5M245 243h5M265 243h5M245 244h5M265 244h5M245 250h10M260 250h10M245 251h10M260 251h10M245 252h10M260 252h10M245 253h10M260 253h10M245 254h10M260 254h10" />
<path stroke="#000000" d="M265 160h5M265 161h5M265 162h5M265 163h5M265 164h5M265 165h5M265 166h5M265 167h5M265 168h5M265 169h5M270 170h5M270 171h5M270 172h5M270 173h5M270 174h5M235 175h5M250 175h15M270 175h5M235 176h5M250 176h15M270 176h5M235 177h5M250 177h15M270 177h5M235 178h5M250 178h15M270 178h5M235 179h5M250 179h15M270 179h5M235 180h5M270 180h5M235 181h5M270 181h5M235 182h5M270 182h5M235 183h5M270 183h5M235 184h5M270 184h5M240 185h30M240 186h30M240 187h30M240 188h30M240 189h30M245 190h5M260 190h5M245 191h5M260 191h5M245 192h5M260 192h5M245 193h5M260 193h5M245 194h5M260 194h5M240 195h10M260 195h10M240 196h10M260 196h10M240 197h10M260 197h10M240 198h10M260 198h10M240 199h10M260 199h10M215 200h70M215 201h70M215 202h70M215 203h70M215 204h70M205 205h90M205 206h90M205 207h90M205 208h90M205 209h90M205 210h95M205 211h95M205 212h95M205 213h95M205 214h95M200 215h15M220 215h80M200 216h15M220 216h80M200 217h15M220 217h80M200 218h15M220 218h80M200 219h15M220 219h80M200 220h15M220 220h85M200 221h15M220 221h85M200 222h15M220 222h85M200 223h15M220 223h85M200 224h15M220 224h85M195 225h5M225 225h20M255 225h5M270 225h15M295 225h10M195 226h5M225 226h20M255 226h5M270 226h15M295 226h10M195 227h5M225 227h20M255 227h5M270 227h15M295 227h10M195 228h5M225 228h20M255 228h5M270 228h15M295 228h10M195 229h5M225 229h20M255 229h5M270 229h15M295 229h10M190 230h10M225 230h20M255 230h5M270 230h15M300 230h5M190 231h10M225 231h20M255 231h5M270 231h15M300 231h5M190 232h10M225 232h20M255 232h5M270 232h15M300 232h5M190 233h10M225 233h20M255 233h5M270 233h15M300 233h5M190 234h10M225 234h20M255 234h5M270 234h15M300 234h5M190 235h5M225 235h20M255 235h5M270 235h15M300 235h5M190 236h5M225 236h20M255 236h5M270 236h15M300 236h5M190 237h5M225 237h20M255 237h5M270 237h15M300 237h5M190 238h5M225 238h20M255 238h5M270 238h15M300 238h5M190 239h5M225 239h20M255 239h5M270 239h15M300 239h5M190 240h5M225 240h20M270 240h15M300 240h10M190 241h5M225 241h20M270 241h15M300 241h10M190 242h5M225 242h20M270 242h15M300 242h10M190 243h5M225 243h20M270 243h15M300 243h10M190 244h5M225 244h20M270 244h15M300 244h10M190 245h5M230 245h20M265 245h15M305 245h5M190 246h5M230 246h20M265 246h15M305 246h5M190 247h5M230 247h20M265 247h15M305 247h5M190 248h5M230 248h20M265 248h15M305 248h5M190 249h5M230 249h20M265 249h15M305 249h5M190 250h5M230 250h15M255 250h5M270 250h10M305 250h5M190 251h5M230 251h15M255 251h5M270 251h10M305 251h5M190 252h5M230 252h15M255 252h5M270 252h10M305 252h5M190 253h5M230 253h15M255 253h5M270 253h10M305 253h5M190 254h5M230 254h15M255 254h5M270 254h10M305 254h5M185 255h10M235 255h45M305 255h10M185 256h10M235 256h45M305 256h10M185 257h10M235 257h45M305 257h10M185 258h10M235 258h45M305 258h10M185 259h10M235 259h45M305 259h10M185 260h10M235 260h45M300 260h5M310 260h5M185 261h10M235 261h45M300 261h5M310 261h5M185 262h10M235 262h45M300 262h5M310 262h5M185 263h10M235 263h45M300 263h5M310 263h5M185 264h10M235 264h45M300 264h5M310 264h5M185 265h5M195 265h5M235 265h10M250 265h5M265 265h10M290 265h10M310 265h5M185 266h5M195 266h5M235 266h10M250 266h5M265 266h10M290 266h10M310 266h5M185 267h5M195 267h5M235 267h10M250 267h5M265 267h10M290 267h10M310 267h5M185 268h5M195 268h5M235 268h10M250 268h5M265 268h10M290 268h10M310 268h5M185 269h5M195 269h5M235 269h10M250 269h5M265 269h10M290 269h10M310 269h5M190 270h5M200 270h15M290 270h5M300 270h10M190 271h5M200 271h15M290 271h5M300 271h10M190 272h5M200 272h15M290 272h5M300 272h10M190 273h5M200 273h15M290 273h5M300 273h10M190 274h5M200 274h15M290 274h5M300 274h10M190 275h5M200 275h5M210 275h5M300 275h5M190 276h5M200 276h5M210 276h5M300 276h5M190 277h5M200 277h5M210 277h5M300 277h5M190 278h5M200 278h5M210 278h5M300 278h5M190 279h5M200 279h5M210 279h5M300 279h5M195 280h10M295 280h5M195 281h10M295 281h5M195 282h10M295 282h5M195 283h10M295 283h5M195 284h10M295 284h5M205 285h5M205 286h5M205 287h5M205 288h5M205 289h5M210 340h5M265 340h5M210 341h5M265 341h5M210 342h5M265 342h5M210 343h5M265 343h5M210 344h5M265 344h5M210 345h10M265 345h10M210 346h10M265 346h10M210 347h10M265 347h10M210 348h10M265 348h10M210 349h10M265 349h10" />
<path stroke="#00b7ef" d="M250 165h5M260 165h5M250 166h5M260 166h5M250 167h5M260 167h5M250 168h5M260 168h5M250 169h5M260 169h5" />
<path stroke="#9c5a3c" d="M255 170h5M255 171h5M255 172h5M255 173h5M255 174h5M245 265h5M275 265h5M245 266h5M275 266h5M245 267h5M275 267h5M245 268h5M275 268h5M245 269h5M275 269h5M230 270h55M230 271h55M230 272h55M230 273h55M230 274h55M230 275h10M275 275h10M230 276h10M275 276h10M230 277h10M275 277h10M230 278h10M275 278h10M230 279h10M275 279h10M225 280h10M275 280h10M225 281h10M275 281h10M225 282h10M275 282h10M225 283h10M275 283h10M225 284h10M275 284h10M225 285h10M275 285h10M225 286h10M275 286h10M225 287h10M275 287h10M225 288h10M275 288h10M225 289h10M275 289h10M220 290h15M275 290h10M220 291h15M275 291h10M220 292h15M275 292h10M220 293h15M275 293h10M220 294h15M275 294h10M220 295h10M275 295h10M220 296h10M275 296h10M220 297h10M275 297h10M220 298h10M275 298h10M220 299h10M275 299h10M220 300h10M270 300h15M220 301h10M270 301h15M220 302h10M270 302h15M220 303h10M270 303h15M220 304h10M270 304h15M215 305h15M270 305h10M215 306h15M270 306h10M215 307h15M270 307h10M215 308h15M270 308h10M215 309h15M270 309h10M215 310h10M270 310h10M215 311h10M270 311h10M215 312h10M270 312h10M215 313h10M270 313h10M215 314h10M270 314h10M215 315h10M270 315h10M215 316h10M270 316h10M215 317h10M270 317h10M215 318h10M270 318h10M215 319h10M270 319h10M215 320h10M270 320h10M215 321h10M270 321h10M215 322h10M270 322h10M215 323h10M270 323h10M215 324h10M270 324h10M210 325h10M270 325h10M210 326h10M270 326h10M210 327h10M270 327h10M210 328h10M270 328h10M210 329h10M270 329h10M210 330h10M265 330h15M210 331h10M265 331h15M210 332h10M265 332h15M210 333h10M265 333h15M210 334h10M265 334h15M210 335h10M265 335h10M210 336h10M265 336h10M210 337h10M265 337h10M210 338h10M265 338h10M210 339h10M265 339h10" />
<path stroke="#99d9ea" d="M250 240h15M250 241h15M250 242h15M250 243h15M250 244h15M250 245h15M250 246h15M250 247h15M250 248h15M250 249h15" />
<path stroke="#b4b4b4" d="M255 265h10M255 266h10M255 267h10M255 268h10M255 269h10" />
</svg>