<svg xmlns="http://www.w3.org/2000/svg" viewBox="0 -0.5 100 100" shape-rendering="crispEdges">
<metadata>Made with Pixels to Svg https://codepen.io/shshaw/pen/XbxvNj</metadata>
<path stroke="#990030" d="M49 28h4M47 29h7M47 30h2M51 30h1M53 30h1M46 31h3M53 31h1M46 32h2M46 33h3M46 34h3M46 35h1" />
<path stroke="#e5aa7a" d="M49 30h2M52 30h1M49 31h4M48 32h2M51 32h1M49 33h1M51 33h1M49 34h2M52 34h2M48 35h2M53 35h1M48 36h6M50 38h2M50 39h2M61 52h1M38 53h1M60 53h2M39 54h1M39 55h1" />
<path stroke="#ffffff" d="M50 32h1M52 32h1M49 45h2M52 45h2M49 46h2M52 46h2M49 47h2M52 47h2M49 48h1M53 48h1M49 50h2M52 50h2" />
<path stroke="#000000" d="M53 32h1M53 33h1M54 34h1M47 35h1M50 35h3M54 35h1M47 36h1M54 36h1M48 37h6M49 38h1M52 38h1M48 39h2M52 39h2M43 40h14M41 41h18M41 42h19M40 43h3M44 43h16M40 44h3M44 44h17M39 45h1M45 45h4M51 45h1M54 45h3M59 45h2M38 46h2M45 46h4M51 46h1M54 46h3M60 46h1M38 47h1M45 47h4M51 47h1M54 47h3M60 47h1M38 48h1M45 48h4M54 48h3M60 48h2M38 49h1M46 49h4M53 49h3M61 49h1M38 50h1M46 50h3M51 50h1M54 50h2M61 50h1M37 51h2M47 51h9M61 51h2M37 52h2M47 52h9M60 52h1M62 52h1M37 53h1M39 53h1M47 53h2M50 53h1M53 53h2M58 53h2M62 53h1M38 54h1M40 54h3M58 54h1M60 54h2M38 55h1M40 55h1M42 55h1M60 55h1M39 56h2M59 56h1M41 57h1M42 68h1M53 68h1M42 69h2M53 69h2" />
<path stroke="#00b7ef" d="M50 33h1M52 33h1" />
<path stroke="#9c5a3c" d="M51 34h1M49 53h1M55 53h1M46 54h11M46 55h2M55 55h2M45 56h2M55 56h2M45 57h2M55 57h2M44 58h3M55 58h2M44 59h2M55 59h2M44 60h2M54 60h3M43 61h3M54 61h2M43 62h2M54 62h2M43 63h2M54 63h2M43 64h2M54 64h2M42 65h2M54 65h2M42 66h2M53 66h3M42 67h2M53 67h2" />
<path stroke="#99d9ea" d="M50 48h3M50 49h3" />
<path stroke="#b4b4b4" d="M51 53h2" />
</svg>